<svg width="183" height="38" viewBox="0 0 183 38" fill="none" xmlns="http://www.w3.org/2000/svg">
<path d="M6.576 37.512C4.82667 37.512 3.376 36.936 2.224 35.784C1.11467 34.632 0.56 33.0747 0.56 31.112C0.56 29.4053 1.136 27.976 2.288 26.824C3.48267 25.6293 4.976 25.032 6.768 25.032C8.47467 25.032 9.904 25.6293 11.056 26.824C12.208 27.976 12.784 29.4053 12.784 31.112C12.784 33.0747 12.208 34.632 11.056 35.784C9.94667 36.936 8.45333 37.512 6.576 37.512ZM18.255 0.519997H44.815V8.2H29.775V14.856H42.447V21.768H29.775V29.192H44.751V37H18.255V0.519997ZM72.932 27.016C72.932 30.8133 71.716 33.544 69.284 35.208C66.8947 36.872 63.4813 37.704 59.044 37.704C55.9293 37.704 52.3453 37.256 48.292 36.36C48.3773 35.5067 48.5693 34.2907 48.868 32.712C49.2093 31.0907 49.4867 29.8533 49.7 29C51.236 29.256 52.9427 29.4693 54.82 29.64C56.6973 29.768 58.2973 29.832 59.62 29.832C60.772 29.832 61.476 29.768 61.732 29.64C61.7747 29.5973 61.8173 29.4907 61.86 29.32C61.9453 29.1067 61.988 28.8933 61.988 28.68C61.988 27.8267 61.4547 27.2507 60.388 26.952C60.0467 26.8667 58.7453 26.504 56.484 25.864C54.2227 25.224 52.3667 24.072 50.916 22.408C49.508 20.7013 48.804 18.5893 48.804 16.072C48.804 14.7493 49.1027 13.2773 49.7 11.656C50.2973 10.0347 50.9373 9.01067 51.62 8.584C52.132 8.24266 53.3693 7.90133 55.332 7.56C57.2947 7.176 59.108 6.984 60.772 6.984C64.3133 6.984 67.876 7.24 71.46 7.752C71.46 8.52 71.3533 9.82133 71.14 11.656C70.9267 13.448 70.7347 14.5787 70.564 15.048C66.9373 14.5787 64.0147 14.344 61.796 14.344C60.644 14.344 59.8973 14.408 59.556 14.536C59.4707 14.5787 59.3853 14.7067 59.3 14.92C59.2147 15.0907 59.172 15.3253 59.172 15.624C59.172 16.2213 59.364 16.648 59.748 16.904C60.132 17.2027 61.1347 17.5653 62.756 17.992C64.676 18.5467 66.3187 19.1227 67.684 19.72C69.092 20.3173 70.308 21.2133 71.332 22.408C72.3987 23.6027 72.932 25.1387 72.932 27.016ZM90.1295 24.904C90.1295 25.672 90.1508 26.4827 90.1935 27.336C90.2362 28.1467 90.3642 28.6587 90.5775 28.872C90.8762 29.1707 91.9215 29.32 93.7135 29.32L95.8895 29.256C96.2735 31.304 96.4655 33.672 96.4655 36.36C95.6548 36.6587 94.4602 36.936 92.8815 37.192C91.3455 37.448 89.8735 37.576 88.4655 37.576C85.5215 37.576 83.2388 36.936 81.6175 35.656C80.0388 34.3333 79.2495 32.3067 79.2495 29.576V13.832H74.4495V8.008L79.2495 7.56L82.1295 0.519997L90.1295 0.0719986V7.56H96.9135V13.832H90.1295V24.904ZM117.723 37L116.699 32.968C114.736 36.168 112.005 37.768 108.507 37.768C105.648 37.768 103.301 36.9787 101.467 35.4C99.6745 33.7787 98.7785 31.5173 98.7785 28.616C98.7785 26.824 99.2905 25.2667 100.315 23.944C101.381 22.5787 102.832 21.6187 104.667 21.064C107.056 20.3813 110.747 19.9973 115.739 19.912C115.739 17.096 115.611 15.6027 115.355 15.432C115.141 15.2613 114.459 15.176 113.307 15.176C112.581 15.176 111.579 15.2187 110.299 15.304C108.251 15.3893 105.477 15.624 101.979 16.008C101.637 13.704 101.381 11.2293 101.211 8.584C103.472 8.11467 105.84 7.73067 108.315 7.432C110.789 7.09067 113.008 6.92 114.971 6.92C118.384 6.92 120.944 7.496 122.651 8.648C124.357 9.75733 125.467 11.2293 125.979 13.064C126.491 14.8987 126.725 17.224 126.683 20.04L126.619 29.448L126.811 37H117.723ZM112.219 30.6C113.328 30.6 114.501 30.3867 115.739 29.96V25.224H115.227C112.069 25.224 110.32 25.3947 109.979 25.736C109.765 25.9493 109.595 26.2693 109.467 26.696C109.381 27.1227 109.339 27.528 109.339 27.912C109.339 28.936 109.573 29.64 110.043 30.024C110.512 30.408 111.237 30.6 112.219 30.6ZM145.192 24.904C145.192 25.672 145.213 26.4827 145.256 27.336C145.299 28.1467 145.427 28.6587 145.64 28.872C145.939 29.1707 146.984 29.32 148.776 29.32L150.952 29.256C151.336 31.304 151.528 33.672 151.528 36.36C150.717 36.6587 149.523 36.936 147.944 37.192C146.408 37.448 144.936 37.576 143.528 37.576C140.584 37.576 138.301 36.936 136.68 35.656C135.101 34.3333 134.312 32.3067 134.312 29.576V13.832H129.512V8.008L134.312 7.56L137.192 0.519997L145.192 0.0719986V7.56H151.976V13.832H145.192V24.904ZM173.105 29.32C174.172 29.32 176.156 29.2133 179.057 29C179.441 29 180.145 28.9573 181.169 28.872L182.129 35.464C178.844 37 174.577 37.768 169.329 37.768C164.422 37.768 160.646 36.5307 158.001 34.056C155.398 31.5813 154.097 27.848 154.097 22.856C154.097 20.296 154.417 17.8213 155.057 15.432C155.74 13.0427 156.508 11.3787 157.361 10.44C158.257 9.50133 159.921 8.69067 162.353 8.008C164.785 7.32533 167.196 6.984 169.585 6.984C173.425 6.984 176.305 7.66667 178.225 9.032C180.145 10.3973 181.404 12.296 182.001 14.728C182.598 17.1173 182.897 20.3387 182.897 24.392C179.996 24.5627 177.158 24.648 174.385 24.648H165.297C165.297 26.0133 165.574 27.0373 166.129 27.72C166.726 28.4027 167.558 28.8507 168.625 29.064C169.692 29.2347 171.185 29.32 173.105 29.32ZM165.937 14.6C165.681 14.728 165.489 15.2827 165.361 16.264C165.233 17.2453 165.148 18.3547 165.105 19.592H168.433C170.438 19.592 171.889 19.5707 172.785 19.528C172.785 17.48 172.486 16.0293 171.889 15.176C171.334 14.3227 170.353 13.896 168.945 13.896C167.793 13.896 166.79 14.1307 165.937 14.6Z" fill="#050505"/>
</svg>
